HIERARCHY
ROOT mixamorig1:Hips
{
	OFFSET 0.000000 92.944595 0.000000
	CHANNELS 6 Xposition Yposition Zposition Xrotation Yrotation Zrotation
	JOINT mixamorig1:Spine
	{
		OFFSET 0.000000 10.433502 -0.333000
		CHANNELS 3 Xrotation Yrotation Zrotation
		JOINT mixamorig1:Spine1
		{
			OFFSET 0.000000 12.172409 -0.388467
			CHANNELS 3 Xrotation Yrotation Zrotation
			JOINT mixamorig1:Spine2
			{
				OFFSET 0.000000 13.911316 -0.443962
				CHANNELS 3 Xrotation Yrotation Zrotation
				JOINT mixamorig1:Neck
				{
					OFFSET 0.000000 15.650330 -0.499460
					CHANNELS 3 Xrotation Yrotation Zrotation
					JOINT mixamorig1:Head
					{
						OFFSET 0.000000 5.519806 1.521600
						CHANNELS 3 Xrotation Yrotation Zrotation
						JOINT mixamorig1:HeadTop_End
						{
							OFFSET 0.000000 21.567795 5.945400
							CHANNELS 3 Xrotation Yrotation Zrotation
							End Site
							{
								OFFSET 0.000000 22.372253 0.000000
							}
						}
					}
				}
				JOINT mixamorig1:LeftShoulder
				{
					OFFSET 5.431600 13.664551 -0.514326
					CHANNELS 3 Xrotation Yrotation Zrotation
					JOINT mixamorig1:LeftArm
					{
						OFFSET 10.896025 -3.900330 -0.029793
						CHANNELS 3 Xrotation Yrotation Zrotation
						JOINT mixamorig1:LeftForeArm
						{
							OFFSET 24.881104 0.000015 0.000000
							CHANNELS 3 Xrotation Yrotation Zrotation
							JOINT mixamorig1:LeftHand
							{
								OFFSET 22.734600 0.000000 0.000001
								CHANNELS 3 Xrotation Yrotation Zrotation
								JOINT mixamorig1:LeftHandThumb1
								{
									OFFSET 3.191261 -1.879669 2.247603
									CHANNELS 3 Xrotation Yrotation Zrotation
									JOINT mixamorig1:LeftHandThumb2
									{
										OFFSET 2.684685 -1.550003 1.550004
										CHANNELS 3 Xrotation Yrotation Zrotation
										JOINT mixamorig1:LeftHandThumb3
										{
											OFFSET 2.420029 -1.397202 1.397203
											CHANNELS 3 Xrotation Yrotation Zrotation
											JOINT mixamorig1:LeftHandThumb4
											{
												OFFSET 1.816750 -1.048904 1.048899
												CHANNELS 3 Xrotation Yrotation Zrotation
												End Site
												{
													OFFSET 1.709686 -1.046646 1.217559
												}
											}
										}
									}
								}
								JOINT mixamorig1:LeftHandIndex1
								{
									OFFSET 9.837479 -0.380814 2.182474
									CHANNELS 3 Xrotation Yrotation Zrotation
									JOINT mixamorig1:LeftHandIndex2
									{
										OFFSET 2.981316 0.000000 0.000000
										CHANNELS 3 Xrotation Yrotation Zrotation
										JOINT mixamorig1:LeftHandIndex3
										{
											OFFSET 2.742516 0.000000 0.000000
											CHANNELS 3 Xrotation Yrotation Zrotation
											JOINT mixamorig1:LeftHandIndex4
											{
												OFFSET 2.337868 0.000000 0.000000
												CHANNELS 3 Xrotation Yrotation Zrotation
												End Site
												{
													OFFSET 2.337791 0.001129 -0.017564
												}
											}
										}
									}
								}
								JOINT mixamorig1:LeftHandMiddle1
								{
									OFFSET 9.935951 0.000000 0.000000
									CHANNELS 3 Xrotation Yrotation Zrotation
									JOINT mixamorig1:LeftHandMiddle2
									{
										OFFSET 3.180130 0.000000 0.000000
										CHANNELS 3 Xrotation Yrotation Zrotation
										JOINT mixamorig1:LeftHandMiddle3
										{
											OFFSET 3.081024 0.000000 0.000000
											CHANNELS 3 Xrotation Yrotation Zrotation
											JOINT mixamorig1:LeftHandMiddle4
											{
												OFFSET 2.550125 0.000000 0.000000
												CHANNELS 3 Xrotation Yrotation Zrotation
												End Site
												{
													OFFSET 2.549995 0.001266 -0.025468
												}
											}
										}
									}
								}
								JOINT mixamorig1:LeftHandRing1
								{
									OFFSET 9.697311 -0.048691 -2.237280
									CHANNELS 3 Xrotation Yrotation Zrotation
									JOINT mixamorig1:LeftHandRing2
									{
										OFFSET 2.903305 0.000000 0.000000
										CHANNELS 3 Xrotation Yrotation Zrotation
										JOINT mixamorig1:LeftHandRing3
										{
											OFFSET 2.800827 0.000000 0.000000
											CHANNELS 3 Xrotation Yrotation Zrotation
											JOINT mixamorig1:LeftHandRing4
											{
												OFFSET 2.301910 0.000000 0.000000
												CHANNELS 3 Xrotation Yrotation Zrotation
												End Site
												{
													OFFSET 2.301903 0.000336 -0.006091
												}
											}
										}
									}
								}
								JOINT mixamorig1:LeftHandPinky1
								{
									OFFSET 8.717087 -0.351471 -4.014757
									CHANNELS 3 Xrotation Yrotation Zrotation
									JOINT mixamorig1:LeftHandPinky2
									{
										OFFSET 2.758202 0.000000 0.000000
										CHANNELS 3 Xrotation Yrotation Zrotation
										JOINT mixamorig1:LeftHandPinky3
										{
											OFFSET 2.317932 0.000000 0.000000
											CHANNELS 3 Xrotation Yrotation Zrotation
											JOINT mixamorig1:LeftHandPinky4
											{
												OFFSET 2.048546 0.000000 0.000000
												CHANNELS 3 Xrotation Yrotation Zrotation
												End Site
												{
													OFFSET 2.048508 0.000931 -0.014069
												}
											}
										}
									}
								}
							}
						}
					}
				}
				JOINT mixamorig1:RightShoulder
				{
					OFFSET -5.431600 13.664597 -0.484512
					CHANNELS 3 Xrotation Yrotation Zrotation
					JOINT mixamorig1:RightArm
					{
						OFFSET -10.896008 -3.900375 0.029802
						CHANNELS 3 Xrotation Yrotation Zrotation
						JOINT mixamorig1:RightForeArm
						{
							OFFSET -24.881804 0.000000 0.000001
							CHANNELS 3 Xrotation Yrotation Zrotation
							JOINT mixamorig1:RightHand
							{
								OFFSET -22.722000 0.000000 0.000001
								CHANNELS 3 Xrotation Yrotation Zrotation
								JOINT mixamorig1:RightHandThumb1
								{
									OFFSET -3.246620 -1.845535 2.326807
									CHANNELS 3 Xrotation Yrotation Zrotation
									JOINT mixamorig1:RightHandThumb2
									{
										OFFSET -2.726646 -1.574234 1.574229
										CHANNELS 3 Xrotation Yrotation Zrotation
										JOINT mixamorig1:RightHandThumb3
										{
											OFFSET -2.400719 -1.386047 1.386055
											CHANNELS 3 Xrotation Yrotation Zrotation
											JOINT mixamorig1:RightHandThumb4
											{
												OFFSET -1.859764 -1.073730 1.073734
												CHANNELS 3 Xrotation Yrotation Zrotation
												End Site
												{
													OFFSET -1.723457 -1.070816 1.283575
												}
											}
										}
									}
								}
								JOINT mixamorig1:RightHandIndex1
								{
									OFFSET -9.742714 -0.295593 2.166874
									CHANNELS 3 Xrotation Yrotation Zrotation
									JOINT mixamorig1:RightHandIndex2
									{
										OFFSET -2.952705 0.000000 0.000000
										CHANNELS 3 Xrotation Yrotation Zrotation
										JOINT mixamorig1:RightHandIndex3
										{
											OFFSET -2.804001 0.000000 0.000000
											CHANNELS 3 Xrotation Yrotation Zrotation
											JOINT mixamorig1:RightHandIndex4
											{
												OFFSET -2.358902 0.000000 0.000000
												CHANNELS 3 Xrotation Yrotation Zrotation
												End Site
												{
													OFFSET -2.358902 -0.000183 0.003595
												}
											}
										}
									}
								}
								JOINT mixamorig1:RightHandMiddle1
								{
									OFFSET -9.949402 0.000000 0.000001
									CHANNELS 3 Xrotation Yrotation Zrotation
									JOINT mixamorig1:RightHandMiddle2
									{
										OFFSET -3.151810 0.000000 0.000000
										CHANNELS 3 Xrotation Yrotation Zrotation
										JOINT mixamorig1:RightHandMiddle3
										{
											OFFSET -3.078247 0.000000 0.000000
											CHANNELS 3 Xrotation Yrotation Zrotation
											JOINT mixamorig1:RightHandMiddle4
											{
												OFFSET -2.625900 0.000000 0.000000
												CHANNELS 3 Xrotation Yrotation Zrotation
												End Site
												{
													OFFSET -2.625801 0.000916 -0.023081
												}
											}
										}
									}
								}
								JOINT mixamorig1:RightHandRing1
								{
									OFFSET -9.698112 -0.103531 -2.110931
									CHANNELS 3 Xrotation Yrotation Zrotation
									JOINT mixamorig1:RightHandRing2
									{
										OFFSET -2.934059 0.000000 0.000000
										CHANNELS 3 Xrotation Yrotation Zrotation
										JOINT mixamorig1:RightHandRing3
										{
											OFFSET -2.787727 0.000000 0.000000
											CHANNELS 3 Xrotation Yrotation Zrotation
											JOINT mixamorig1:RightHandRing4
											{
												OFFSET -2.375610 0.000000 0.000000
												CHANNELS 3 Xrotation Yrotation Zrotation
												End Site
												{
													OFFSET -2.375603 -0.000320 0.006192
												}
											}
										}
									}
								}
								JOINT mixamorig1:RightHandPinky1
								{
									OFFSET -8.583847 -0.242157 -4.009416
									CHANNELS 3 Xrotation Yrotation Zrotation
									JOINT mixamorig1:RightHandPinky2
									{
										OFFSET -2.913101 0.000000 0.000000
										CHANNELS 3 Xrotation Yrotation Zrotation
										JOINT mixamorig1:RightHandPinky3
										{
											OFFSET -2.343506 0.000000 0.000000
											CHANNELS 3 Xrotation Yrotation Zrotation
											JOINT mixamorig1:RightHandPinky4
											{
												OFFSET -1.963608 0.000000 0.000000
												CHANNELS 3 Xrotation Yrotation Zrotation
												End Site
												{
													OFFSET -1.963600 0.000290 -0.005993
												}
											}
										}
									}
								}
							}
						}
					}
				}
			}
		}
	}
	JOINT mixamorig1:LeftUpLeg
	{
		OFFSET 9.709800 -5.795303 0.023700
		CHANNELS 3 Xrotation Yrotation Zrotation
		JOINT mixamorig1:LeftLeg
		{
			OFFSET 0.639935 -42.299309 -1.570667
			CHANNELS 3 Xrotation Yrotation Zrotation
			JOINT mixamorig1:LeftFoot
			{
				OFFSET -0.639926 -35.674927 -1.162552
				CHANNELS 3 Xrotation Yrotation Zrotation
				JOINT mixamorig1:LeftToeBase
				{
					OFFSET 1.230118 -8.781649 11.850578
					CHANNELS 3 Xrotation Yrotation Zrotation
					JOINT mixamorig1:LeftToe_End
					{
						OFFSET 0.717142 -0.083041 6.275008
						CHANNELS 3 Xrotation Yrotation Zrotation
						End Site
						{
							OFFSET 0.717142 -0.083041 6.275007
						}
					}
				}
			}
		}
	}
	JOINT mixamorig1:RightUpLeg
	{
		OFFSET -9.709800 -5.795303 0.149900
		CHANNELS 3 Xrotation Yrotation Zrotation
		JOINT mixamorig1:RightLeg
		{
			OFFSET -0.639923 -42.299263 -1.590850
			CHANNELS 3 Xrotation Yrotation Zrotation
			JOINT mixamorig1:RightFoot
			{
				OFFSET 0.639915 -35.674904 -1.566442
				CHANNELS 3 Xrotation Yrotation Zrotation
				JOINT mixamorig1:RightToeBase
				{
					OFFSET -1.230160 -8.781725 12.359274
					CHANNELS 3 Xrotation Yrotation Zrotation
					JOINT mixamorig1:RightToe_End
					{
						OFFSET -0.717155 -0.083075 6.338317
						CHANNELS 3 Xrotation Yrotation Zrotation
						End Site
						{
							OFFSET -0.717155 -0.083075 6.338316
						}
					}
				}
			}
		}
	}
}
MOTION
Frames: 5
Frame Time: 0.033333
-1.282952 91.138031 -0.792172 3.571609 -2.685691 -7.175090 4.622714 1.676909 1.130421 2.493924 0.692302 0.369771 2.472811 0.734513 0.380478 6.508255 0.611069 -2.514071 6.501925 0.594128 -2.473564 0.000001 0.000000 0.000000 0.646925 -17.508097 -15.097530 -0.316526 -18.541558 -60.311192 0.000005 -1.314414 0.000002 -32.922386 -3.039744 2.371121 -2.663393 2.208588 6.081371 14.231412 22.576297 12.932077 -13.682242 2.301842 10.928064 -0.000001 0.000000 -0.000002 0.387735 -0.669789 -10.100731 0.263335 1.738338 -17.226782 0.055554 0.805760 -7.888297 0.000000 -0.000000 -0.000001 -0.050306 3.042746 -19.503892 0.246819 1.684191 -16.673943 0.277332 1.782805 -17.682117 -0.000000 -0.000000 -0.000002 0.231721 4.063743 -26.183969 0.579490 2.542344 -25.676119 0.452289 2.259071 -22.640776 0.000000 -0.000000 -0.000003 0.539477 5.933180 -34.114234 0.355923 2.012633 -20.054991 0.324982 1.925839 -19.154750 -0.000000 0.000000 -0.000000 1.840452 19.329758 11.482772 9.485499 28.260790 56.773475 -0.000001 9.622071 0.000002 -22.705991 1.736761 3.598133 -1.903917 -0.561039 1.272585 12.212733 -28.868867 -16.285182 -15.905923 -2.846598 -12.405586 0.000000 -0.000003 0.000003 0.622950 -0.886416 8.973907 0.183372 -1.295263 16.114395 0.032462 -0.549486 6.761180 -0.000003 -0.000001 0.000001 0.206553 -3.558041 20.967168 0.248670 -1.502948 18.788735 0.275836 -1.580485 19.798073 0.000002 -0.000002 -0.000002 -0.218980 -3.024797 29.320100 0.551003 -2.199304 28.127177 0.439358 -1.976441 25.063354 -0.000001 0.000003 0.000003 0.925842 -5.154347 35.116864 0.240717 -1.479336 18.482763 0.217282 -1.407314 17.552278 0.000001 0.000004 0.000001 -28.310233 11.251935 17.467625 28.564819 -1.382536 4.299766 -4.057172 0.888214 -8.405182 -4.224598 -0.000004 -0.000006 -0.000000 0.000002 0.000000 -9.751909 -9.553615 8.881501 15.313426 -10.030327 -3.903836 -6.839760 -6.727370 2.856802 -6.993171 0.000010 0.000002 -0.000000 0.000003 0.000000 
-1.283426 91.195923 -0.717350 3.121813 -2.757872 -6.935453 4.542557 1.693659 1.190066 2.404883 0.707926 0.429754 2.383541 0.748365 0.440572 6.605680 0.581376 -2.379425 6.599374 0.564417 -2.338916 0.000000 0.000000 -0.000000 0.654629 -17.442213 -15.049219 -0.131948 -17.820916 -60.424908 0.000006 -0.866420 0.000008 -32.559498 -2.800420 1.272207 -1.928198 2.348308 5.513633 14.263560 22.295489 13.234192 -13.794187 2.408901 10.973364 -0.000002 0.000001 -0.000000 0.418964 -0.675295 -10.035587 0.264327 1.741542 -17.259623 0.056017 0.809083 -7.920993 0.000001 -0.000000 -0.000002 -0.037800 3.075021 -19.456612 0.249860 1.694240 -16.776415 0.280506 1.792758 -17.784173 0.000001 -0.000000 0.000002 0.234122 4.068386 -26.177540 0.573842 2.530593 -25.548671 0.447228 2.246906 -22.511938 0.000000 0.000000 -0.000001 0.624402 5.865065 -32.951705 0.338213 1.963488 -19.544658 0.308054 1.876419 -18.644461 -0.000000 -0.000000 -0.000000 1.824697 19.203336 11.545528 10.487557 28.475544 56.014607 -0.000007 9.568208 0.000006 -22.610810 1.386451 3.874774 -1.947551 -0.181224 0.243915 12.009328 -28.469815 -16.347976 -15.865409 -2.953692 -12.450425 -0.000001 -0.000003 0.000003 0.604756 -0.746457 8.399172 0.182858 -1.293454 16.091345 0.032236 -0.547625 6.738112 -0.000000 0.000000 0.000000 0.174340 -3.460941 20.429171 0.249070 -1.504085 18.803618 0.276245 -1.581623 19.812840 0.000001 -0.000002 0.000000 -0.253783 -2.927811 28.791590 0.546934 -2.191675 28.020981 0.435675 -1.968543 24.956422 -0.000000 0.000002 0.000002 0.907422 -5.126707 34.355582 0.239232 -1.474941 18.425827 0.215942 -1.403058 17.497562 -0.000002 0.000000 0.000002 -27.381168 11.471876 17.149372 27.948528 -1.236893 4.336549 -3.999209 0.885196 -8.466545 -4.225047 -0.000002 -0.000001 -0.000000 -0.000001 -0.000000 -9.134985 -9.608492 8.572155 15.080016 -10.029493 -3.825304 -6.846805 -6.450972 2.839006 -6.990425 0.000010 0.000001 0.000000 0.000002 0.000000 
-1.267614 91.252525 -0.631717 2.626434 -2.890492 -6.663282 4.453351 1.700756 1.257290 2.304054 0.714730 0.494038 2.282481 0.754190 0.505003 6.709445 0.556959 -2.273959 6.703195 0.539803 -2.233506 0.000001 0.000000 0.000000 0.667795 -17.355244 -14.962757 0.129943 -17.109151 -60.606625 -0.000002 -0.531526 -0.000025 -32.312054 -2.571847 0.153438 -1.466865 2.370777 5.095558 14.337516 22.094422 13.271100 -13.811844 2.414927 10.999126 -0.000001 0.000001 -0.000000 0.423432 -0.679895 -9.992318 0.264731 1.742810 -17.272580 0.056211 0.810395 -7.933928 -0.000000 0.000000 -0.000000 -0.039252 3.073602 -19.495409 0.252684 1.703609 -16.871882 0.283513 1.802062 -17.879676 0.000000 0.000000 -0.000002 0.236150 4.071240 -26.143866 0.567218 2.516707 -25.398253 0.441295 2.232519 -22.359888 -0.000000 0.000000 -0.000001 0.632689 5.808527 -32.171578 0.326960 1.931548 -19.213863 0.297325 1.844295 -18.313658 -0.000000 -0.000001 0.000003 1.778282 19.160258 11.767779 11.643766 28.718189 55.111919 -0.000004 9.542817 0.000001 -22.566364 1.069418 4.216242 -1.980967 0.184957 -0.711013 11.853437 -28.161843 -16.395429 -15.822186 -3.035341 -12.485705 -0.000001 -0.000003 0.000002 0.594306 -0.638846 7.923275 0.182794 -1.293228 16.088243 0.032212 -0.547369 6.735043 -0.000001 0.000001 0.000004 0.148685 -3.381304 20.034395 0.249479 -1.505282 18.819051 0.276677 -1.582803 19.828155 -0.000002 -0.000000 -0.000003 -0.285091 -2.844955 28.417946 0.545309 -2.188611 27.978210 0.434182 -1.965327 24.912968 -0.000000 0.000003 0.000001 0.896820 -5.109655 33.762079 0.237687 -1.470272 18.365325 0.214524 -1.398537 17.439266 -0.000001 0.000000 -0.000002 -26.312663 11.704064 16.772178 27.239406 -1.012777 4.375648 -3.994802 0.883984 -8.535492 -4.246662 -0.000002 0.000005 0.000001 0.000001 0.000000 -8.457403 -9.669185 8.215750 14.815539 -10.025722 -3.748528 -6.891846 -6.094532 2.822940 -6.980604 0.000001 -0.000001 0.000001 0.000002 0.000000 
-1.237247 91.300079 -0.530753 2.091488 -3.084325 -6.352502 4.351157 1.703667 1.324928 2.189245 0.712756 0.557849 2.167472 0.749046 0.568901 6.823566 0.536402 -2.185593 6.817342 0.519110 -2.145183 0.000003 -0.000000 -0.000000 0.688871 -17.245212 -14.819847 0.496788 -16.473694 -60.933777 0.000001 -0.322881 -0.000011 -32.214037 -2.426750 -0.924487 -1.242502 2.301004 4.812291 14.436839 21.947951 13.130057 -13.772594 2.355354 11.021485 0.000001 0.000000 -0.000000 0.408069 -0.684135 -9.946665 0.264617 1.742473 -17.269122 0.056164 0.810052 -7.930539 -0.000000 -0.000000 0.000001 -0.054720 3.033330 -19.546856 0.254853 1.710731 -16.944665 0.285816 1.809189 -17.952911 0.000000 0.000000 0.000002 0.237945 4.072502 -26.081636 0.559616 2.500641 -25.224577 0.434475 2.215907 -22.184366 -0.000000 -0.000001 -0.000001 0.584930 5.756590 -31.666219 0.320260 1.912208 -19.013975 0.290909 1.824854 -18.113759 -0.000000 0.000001 -0.000001 1.722810 19.057075 12.030394 12.749417 29.017891 54.336129 -0.000005 9.515838 0.000014 -22.479585 0.766107 4.573356 -1.986672 0.311736 -1.088460 11.796823 -28.049154 -16.411836 -15.807745 -3.064448 -12.500393 0.000001 -0.000001 0.000002 0.593304 -0.595883 7.695781 0.183470 -1.295588 16.118507 0.032503 -0.549812 6.765275 -0.000002 -0.000001 0.000002 0.136279 -3.343183 19.891314 0.250048 -1.507011 18.841541 0.277300 -1.584527 19.850618 0.000001 0.000001 0.000003 -0.295133 -2.815464 28.262479 0.546489 -2.190832 28.009228 0.435239 -1.967606 24.943571 0.000000 0.000001 0.000001 0.897912 -5.110215 33.490238 0.236040 -1.465311 18.301142 0.212991 -1.393673 17.376823 -0.000001 -0.000000 0.000003 -25.126278 11.943085 16.330868 26.481263 -0.708601 4.405306 -4.092854 0.889215 -8.542219 -4.287910 -0.000003 0.000002 0.000000 0.000000 0.000000 -7.756792 -9.737539 7.811414 14.589885 -10.016863 -3.698643 -7.017698 -5.680606 2.836726 -6.969354 0.000008 0.000002 -0.000000 0.000002 0.000000 
-1.196228 91.338104 -0.410776 1.520946 -3.326506 -6.009064 4.239147 1.704428 1.387861 2.064242 0.700587 0.617641 2.042301 0.735061 0.628682 6.948925 0.518229 -2.099529 6.942720 0.501241 -2.059031 0.000002 0.000000 0.000000 0.713561 -17.125253 -14.649002 0.991024 -15.976711 -61.362092 -0.000015 -0.230076 0.000016 -32.275075 -2.364767 -1.957699 -1.182104 2.203684 4.652448 14.542813 21.816948 12.938297 -13.727300 2.281114 11.057573 0.000002 0.000005 0.000003 0.379008 -0.691796 -9.897742 0.264372 1.741696 -17.261169 0.056045 0.809251 -7.922692 0.000001 -0.000000 -0.000000 -0.072556 2.985052 -19.577385 0.256565 1.716390 -17.002520 0.287673 1.814899 -18.011422 0.000000 0.000000 -0.000004 0.239399 4.071994 -25.989544 0.551046 2.482390 -25.027457 0.426807 2.197019 -21.985165 0.000000 0.000000 -0.000000 0.529866 5.710599 -31.286894 0.315719 1.898984 -18.877316 0.286584 1.811576 -17.977300 0.000001 -0.000000 0.000001 1.669398 18.777522 12.272159 13.603524 29.335546 53.909928 -0.000011 9.436343 0.000019 -22.393427 0.512114 4.918304 -1.963717 0.095566 -0.623187 11.850239 -28.155877 -16.396240 -15.826684 -3.027463 -12.482288 -0.000001 -0.000005 0.000004 0.598075 -0.633357 7.804733 0.184449 -1.298940 16.161378 0.032906 -0.553273 6.808136 0.000003 -0.000001 0.000002 0.141490 -3.361673 20.039145 0.250700 -1.508890 18.865872 0.277958 -1.586381 19.874942 -0.000000 -0.000001 0.000000 -0.274402 -2.860536 28.355886 0.550471 -2.198341 28.113858 0.438839 -1.975324 25.048308 0.000002 0.000006 0.000001 0.913226 -5.130524 33.633767 0.235244 -1.462864 18.269358 0.212251 -1.391296 17.346102 -0.000000 -0.000005 -0.000000 -23.864626 12.182271 15.847289 25.726377 -0.343288 4.418001 -4.228063 0.896244 -8.544363 -4.336286 -0.000005 0.000001 -0.000000 -0.000001 -0.000000 -7.057506 -9.832074 7.353725 14.458011 -10.005190 -3.664890 -7.232177 -5.220984 2.883325 -6.972877 0.000005 0.000000 0.000000 0.000002 0.000000 
